<?xml version="1.0" encoding="UTF-8"?>
<!--Generator: Apple Native CoreSVG 326-->
<!DOCTYPE svg
PUBLIC "-//W3C//DTD SVG 1.1//EN"
       "http://www.w3.org/Graphics/SVG/1.1/DTD/svg11.dtd">
<svg version="1.1" xmlns="http://www.w3.org/2000/svg" xmlns:xlink="http://www.w3.org/1999/xlink" viewBox="0 0 21.9258 21.5742">
 <g>
  <rect height="21.5742" opacity="0" width="21.9258" x="0" y="0"/>
  <path d="M3.67969 21.5742L17.8945 21.5742C20.3555 21.5742 21.5742 20.3672 21.5742 17.9531L21.5742 3.63281C21.5742 1.21875 20.3555 0 17.8945 0L3.67969 0C1.23047 0 0 1.21875 0 3.63281L0 17.9531C0 20.3672 1.23047 21.5742 3.67969 21.5742ZM3.70312 19.6875C2.53125 19.6875 1.88672 19.0664 1.88672 17.8477L1.88672 3.73828C1.88672 2.51953 2.53125 1.88672 3.70312 1.88672L17.8711 1.88672C19.0312 1.88672 19.6875 2.51953 19.6875 3.73828L19.6875 17.8477C19.6875 19.0664 19.0312 19.6875 17.8711 19.6875Z" fill="black" fill-opacity="0.85"/>
  <path d="M16.7109 10.7695C16.7109 10.5234 16.6289 10.3242 16.3945 10.0898L12.6797 6.22266C12.4922 6.04688 12.3047 5.95312 12.0586 5.95312C11.5781 5.95312 11.2383 6.31641 11.2383 6.80859C11.2383 7.03125 11.332 7.27734 11.5195 7.44141L13.418 9.22266L14.1445 9.91406L12.3867 9.83203L5.80078 9.83203C5.30859 9.83203 4.88672 10.2656 4.88672 10.7695C4.88672 11.2734 5.30859 11.6953 5.80078 11.6953L12.3867 11.6953L14.1445 11.625L13.418 12.3164L11.5195 14.0977C11.332 14.2617 11.2383 14.5195 11.2383 14.7422C11.2383 15.2344 11.5781 15.5859 12.0586 15.5859C12.3047 15.5859 12.4922 15.4922 12.6797 15.3164L16.3945 11.4492C16.6289 11.2148 16.7109 11.0039 16.7109 10.7695Z" fill="black" fill-opacity="0.85"/>
 </g>
</svg>
