<?xml version="1.0" encoding="UTF-8"?>
<!--Generator: Apple Native CoreSVG 326-->
<!DOCTYPE svg
PUBLIC "-//W3C//DTD SVG 1.1//EN"
       "http://www.w3.org/Graphics/SVG/1.1/DTD/svg11.dtd">
<svg version="1.1" xmlns="http://www.w3.org/2000/svg" xmlns:xlink="http://www.w3.org/1999/xlink" viewBox="0 0 24.2578 23.918">
 <g>
  <rect height="23.918" opacity="0" width="24.2578" x="0" y="0"/>
  <path d="M11.9531 23.9062C18.5508 23.9062 23.9062 18.5508 23.9062 11.9531C23.9062 5.35547 18.5508 0 11.9531 0C5.35547 0 0 5.35547 0 11.9531C0 18.5508 5.35547 23.9062 11.9531 23.9062ZM11.9531 21.9141C6.44531 21.9141 1.99219 17.4609 1.99219 11.9531C1.99219 6.44531 6.44531 1.99219 11.9531 1.99219C17.4609 1.99219 21.9141 6.44531 21.9141 11.9531C21.9141 17.4609 17.4609 21.9141 11.9531 21.9141Z" fill="black" fill-opacity="0.85"/>
  <path d="M6.71484 12.4922C6.71484 15.4219 9.04688 17.7656 11.9414 17.7656C14.8359 17.7656 17.168 15.4219 17.168 12.5273C17.168 12.0938 16.793 11.7305 16.3594 11.7305C15.9258 11.7305 15.5508 12.0938 15.5508 12.5273C15.5508 14.5312 13.9453 16.1484 11.9414 16.1484C9.9375 16.1484 8.33203 14.543 8.33203 12.5273C8.33203 10.5234 9.9375 8.91797 11.9414 8.91797C12.0938 8.91797 12.2578 8.92969 12.375 8.95312L11.2266 10.0664C11.0859 10.2188 11.0039 10.3945 11.0039 10.6172C11.0039 11.0273 11.332 11.3438 11.7422 11.3438C11.9414 11.3438 12.1289 11.25 12.2578 11.1328L14.5312 8.85938C14.8242 8.57812 14.8008 8.05078 14.5312 7.76953L12.2812 5.48438C12.1523 5.34375 11.9531 5.25 11.7422 5.25C11.3203 5.25 11.0039 5.57812 11.0039 6C11.0039 6.19922 11.0859 6.39844 11.2148 6.52734L12.0469 7.37109C11.9531 7.37109 11.8242 7.34766 11.7188 7.34766C9.08203 7.34766 6.71484 9.60938 6.71484 12.4922Z" fill="black" fill-opacity="0.85"/>
 </g>
</svg>
