<?xml version="1.0" encoding="UTF-8"?>
<!--Generator: Apple Native CoreSVG 326-->
<!DOCTYPE svg
PUBLIC "-//W3C//DTD SVG 1.1//EN"
       "http://www.w3.org/Graphics/SVG/1.1/DTD/svg11.dtd">
<svg version="1.1" xmlns="http://www.w3.org/2000/svg" xmlns:xlink="http://www.w3.org/1999/xlink" viewBox="0 0 22.1133 17.7773">
 <g>
  <rect height="17.7773" opacity="0" width="22.1133" x="0" y="0"/>
  <path d="M0 8.88281C0 9.17578 0.128906 9.44531 0.363281 9.66797L8.14453 17.4375C8.37891 17.6602 8.625 17.7656 8.90625 17.7656C9.48047 17.7656 9.9375 17.3438 9.9375 16.7578C9.9375 16.4766 9.83203 16.1953 9.64453 16.0195L7.01953 13.3477L2.37891 9.11719L2.13281 9.69141L5.90625 9.92578L20.7305 9.92578C21.3398 9.92578 21.7617 9.49219 21.7617 8.88281C21.7617 8.27344 21.3398 7.83984 20.7305 7.83984L5.90625 7.83984L2.13281 8.07422L2.37891 8.66016L7.01953 4.41797L9.64453 1.74609C9.83203 1.55859 9.9375 1.28906 9.9375 1.00781C9.9375 0.421875 9.48047 0 8.90625 0C8.625 0 8.37891 0.09375 8.12109 0.351562L0.363281 8.09766C0.128906 8.32031 0 8.58984 0 8.88281Z" fill="black" fill-opacity="0.85"/>
 </g>
</svg>
