<?xml version="1.0" encoding="UTF-8"?>
<!--Generator: Apple Native CoreSVG 326-->
<!DOCTYPE svg
PUBLIC "-//W3C//DTD SVG 1.1//EN"
       "http://www.w3.org/Graphics/SVG/1.1/DTD/svg11.dtd">
<svg version="1.1" xmlns="http://www.w3.org/2000/svg" xmlns:xlink="http://www.w3.org/1999/xlink" viewBox="0 0 22.1133 17.7773">
 <g>
  <rect height="17.7773" opacity="0" width="22.1133" x="0" y="0"/>
  <path d="M21.7617 8.88281C21.7617 8.58984 21.6445 8.32031 21.4102 8.09766L13.6406 0.351562C13.3828 0.09375 13.1367 0 12.8555 0C12.2812 0 11.8359 0.421875 11.8359 1.00781C11.8359 1.28906 11.9297 1.55859 12.1172 1.74609L14.7422 4.41797L19.3945 8.66016L19.6289 8.07422L15.8555 7.83984L1.03125 7.83984C0.421875 7.83984 0 8.27344 0 8.88281C0 9.49219 0.421875 9.92578 1.03125 9.92578L15.8555 9.92578L19.6289 9.69141L19.3945 9.11719L14.7422 13.3477L12.1172 16.0195C11.9297 16.1953 11.8359 16.4766 11.8359 16.7578C11.8359 17.3438 12.2812 17.7656 12.8555 17.7656C13.1367 17.7656 13.3828 17.6602 13.6172 17.4375L21.4102 9.66797C21.6445 9.44531 21.7617 9.17578 21.7617 8.88281Z" fill="black" fill-opacity="0.85"/>
 </g>
</svg>
