<?xml version="1.0" encoding="UTF-8"?>
<!--Generator: Apple Native CoreSVG 326-->
<!DOCTYPE svg
PUBLIC "-//W3C//DTD SVG 1.1//EN"
       "http://www.w3.org/Graphics/SVG/1.1/DTD/svg11.dtd">
<svg version="1.1" xmlns="http://www.w3.org/2000/svg" xmlns:xlink="http://www.w3.org/1999/xlink" viewBox="0 0 24.2578 23.918">
 <g>
  <rect height="23.918" opacity="0" width="24.2578" x="0" y="0"/>
  <path d="M11.9531 23.9062C18.5508 23.9062 23.9062 18.5508 23.9062 11.9531C23.9062 5.35547 18.5508 0 11.9531 0C5.35547 0 0 5.35547 0 11.9531C0 18.5508 5.35547 23.9062 11.9531 23.9062ZM11.9531 21.9141C6.44531 21.9141 1.99219 17.4609 1.99219 11.9531C1.99219 6.44531 6.44531 1.99219 11.9531 1.99219C17.4609 1.99219 21.9141 6.44531 21.9141 11.9531C21.9141 17.4609 17.4609 21.9141 11.9531 21.9141Z" fill="black" fill-opacity="0.85"/>
  <path d="M10.6641 17.5195C11.0508 17.5195 11.3789 17.332 11.6133 16.9688L16.9688 8.54297C17.0977 8.30859 17.25 8.05078 17.25 7.79297C17.25 7.26562 16.7812 6.92578 16.2891 6.92578C15.9961 6.92578 15.7031 7.11328 15.4805 7.45312L10.6172 15.2578L8.30859 12.2695C8.02734 11.8945 7.76953 11.8008 7.44141 11.8008C6.9375 11.8008 6.53906 12.2109 6.53906 12.7266C6.53906 12.9844 6.64453 13.2305 6.80859 13.4531L9.66797 16.9688C9.96094 17.3555 10.2773 17.5195 10.6641 17.5195Z" fill="black" fill-opacity="0.85"/>
 </g>
</svg>
