<?xml version="1.0" encoding="UTF-8"?>
<!--Generator: Apple Native CoreSVG 326-->
<!DOCTYPE svg
PUBLIC "-//W3C//DTD SVG 1.1//EN"
       "http://www.w3.org/Graphics/SVG/1.1/DTD/svg11.dtd">
<svg version="1.1" xmlns="http://www.w3.org/2000/svg" xmlns:xlink="http://www.w3.org/1999/xlink" viewBox="0 0 24.2578 23.918">
 <g>
  <rect height="23.918" opacity="0" width="24.2578" x="0" y="0"/>
  <path d="M23.9062 11.9531C23.9062 18.5391 18.5508 23.9062 11.9531 23.9062C5.36719 23.9062 0 18.5391 0 11.9531C0 5.35547 5.36719 0 11.9531 0C18.5508 0 23.9062 5.35547 23.9062 11.9531ZM15.5977 7.30078L10.5938 15.3398L8.21484 12.2695C7.92188 11.8828 7.66406 11.7773 7.32422 11.7773C6.79688 11.7773 6.38672 12.2109 6.38672 12.7383C6.38672 13.0078 6.49219 13.2656 6.66797 13.5L9.60938 17.1094C9.91406 17.5195 10.2422 17.6836 10.6406 17.6836C11.0391 17.6836 11.3789 17.4961 11.625 17.1094L17.1328 8.4375C17.2734 8.19141 17.4258 7.92188 17.4258 7.66406C17.4258 7.11328 16.9453 6.76172 16.4297 6.76172C16.125 6.76172 15.8203 6.94922 15.5977 7.30078Z" fill="black" fill-opacity="0.85"/>
 </g>
</svg>
