<?xml version="1.0" encoding="UTF-8"?>
<!--Generator: Apple Native CoreSVG 326-->
<!DOCTYPE svg
PUBLIC "-//W3C//DTD SVG 1.1//EN"
       "http://www.w3.org/Graphics/SVG/1.1/DTD/svg11.dtd">
<svg version="1.1" xmlns="http://www.w3.org/2000/svg" xmlns:xlink="http://www.w3.org/1999/xlink" viewBox="0 0 14.1094 20.3555">
 <g>
  <rect height="20.3555" opacity="0" width="14.1094" x="0" y="0"/>
  <path d="M14.1094 10.1719C14.1094 9.87891 13.9922 9.60938 13.7695 9.39844L4.48828 0.304688C4.27734 0.105469 4.01953 0 3.71484 0C3.11719 0 2.64844 0.457031 2.64844 1.06641C2.64844 1.35938 2.76562 1.62891 2.95312 1.82812L11.4844 10.1719L2.95312 18.5156C2.76562 18.7148 2.64844 18.9727 2.64844 19.2773C2.64844 19.8867 3.11719 20.3438 3.71484 20.3438C4.01953 20.3438 4.27734 20.2383 4.48828 20.0273L13.7695 10.9453C13.9922 10.7227 14.1094 10.4648 14.1094 10.1719Z" fill="black" fill-opacity="0.85"/>
 </g>
</svg>
