<?xml version="1.0" encoding="UTF-8"?>
<!--Generator: Apple Native CoreSVG 326-->
<!DOCTYPE svg
PUBLIC "-//W3C//DTD SVG 1.1//EN"
       "http://www.w3.org/Graphics/SVG/1.1/DTD/svg11.dtd">
<svg version="1.1" xmlns="http://www.w3.org/2000/svg" xmlns:xlink="http://www.w3.org/1999/xlink" viewBox="0 0 22.2188 4.46484">
 <g>
  <rect height="4.46484" opacity="0" width="22.2188" x="0" y="0"/>
  <path d="M19.6406 4.44141C20.8711 4.44141 21.8672 3.45703 21.8672 2.22656C21.8672 0.996094 20.8711 0 19.6406 0C18.4102 0 17.4141 0.996094 17.4141 2.22656C17.4141 3.45703 18.4102 4.44141 19.6406 4.44141Z" fill="black" fill-opacity="0.85"/>
  <path d="M10.9336 4.44141C12.1641 4.44141 13.1484 3.45703 13.1484 2.22656C13.1484 0.996094 12.1641 0 10.9336 0C9.70312 0 8.70703 0.996094 8.70703 2.22656C8.70703 3.45703 9.70312 4.44141 10.9336 4.44141Z" fill="black" fill-opacity="0.85"/>
  <path d="M2.22656 4.44141C3.45703 4.44141 4.44141 3.45703 4.44141 2.22656C4.44141 0.996094 3.45703 0 2.22656 0C0.996094 0 0 0.996094 0 2.22656C0 3.45703 0.996094 4.44141 2.22656 4.44141Z" fill="black" fill-opacity="0.85"/>
 </g>
</svg>
