<?xml version="1.0" encoding="UTF-8"?>
<!--Generator: Apple Native CoreSVG 326-->
<!DOCTYPE svg
PUBLIC "-//W3C//DTD SVG 1.1//EN"
       "http://www.w3.org/Graphics/SVG/1.1/DTD/svg11.dtd">
<svg version="1.1" xmlns="http://www.w3.org/2000/svg" xmlns:xlink="http://www.w3.org/1999/xlink" viewBox="0 0 28.6289 20.2148">
 <g>
  <rect height="20.2148" opacity="0" width="28.6289" x="0" y="0"/>
  <path d="M3.67969 20.2148L24.9492 20.2148C27.0469 20.2148 28.2773 18.9961 28.2773 16.582L28.2773 3.64453C28.2773 1.23047 27.0352 0.0117188 24.5977 0.0117188L3.32812 0.0117188C1.23047 0.0117188 0 1.23047 0 3.64453L0 16.582C0 18.9961 1.24219 20.2148 3.67969 20.2148ZM3.60938 18.4219C2.44922 18.4219 1.79297 17.7773 1.79297 16.5703L1.79297 3.63281C1.79297 2.4375 2.44922 1.80469 3.60938 1.80469L24.6562 1.80469C25.8164 1.80469 26.4844 2.4375 26.4844 3.64453L26.4844 16.582C26.4844 17.7773 25.8164 18.4219 24.6562 18.4219ZM14.1328 13.1953C14.8828 13.1953 15.6094 12.9141 16.2773 12.3047L27.3047 2.37891L26.0859 1.14844L15.2578 10.9102C14.8945 11.2383 14.5195 11.3906 14.1328 11.3906C13.7461 11.3906 13.3711 11.2383 13.0078 10.9102L2.17969 1.14844L0.960938 2.37891L11.9883 12.3047C12.6562 12.9141 13.3828 13.1953 14.1328 13.1953ZM2.35547 18.7148L10.6758 10.3828L9.45703 9.16406L1.13672 17.4844ZM25.9336 18.7266L27.1523 17.4961L18.8203 9.16406L17.5898 10.3828Z" fill="black" fill-opacity="0.85"/>
 </g>
</svg>
