<?xml version="1.0" encoding="UTF-8"?>
<!--Generator: Apple Native CoreSVG 326-->
<!DOCTYPE svg
PUBLIC "-//W3C//DTD SVG 1.1//EN"
       "http://www.w3.org/Graphics/SVG/1.1/DTD/svg11.dtd">
<svg version="1.1" xmlns="http://www.w3.org/2000/svg" xmlns:xlink="http://www.w3.org/1999/xlink" viewBox="0 0 28.6289 20.2148">
 <g>
  <rect height="20.2148" opacity="0" width="28.6289" x="0" y="0"/>
  <path d="M14.1328 11.4141C14.5195 11.4141 14.8945 11.2617 15.2578 10.9336L26.9648 0.621094C26.332 0.199219 25.6055 0.0117188 24.5977 0.0117188L3.67969 0.0117188C2.67188 0.0117188 1.94531 0.199219 1.30078 0.621094L13.0078 10.9336C13.3828 11.2617 13.7578 11.4141 14.1328 11.4141ZM0.304688 18.3164L8.97656 9.65625L0.28125 1.99219C0.152344 2.23828 0 2.83594 0 3.64453L0 16.582C0 17.332 0.117188 17.8711 0.304688 18.3164ZM3.32812 20.2148L24.9492 20.2148C25.8047 20.2148 26.4727 20.0039 26.918 19.6992L18 10.7812L16.2891 12.3047C15.6094 12.9023 14.8711 13.207 14.1328 13.207C13.4062 13.207 12.668 12.9023 11.9883 12.3047L10.2773 10.7812L1.35938 19.6992C1.80469 20.0039 2.46094 20.2148 3.32812 20.2148ZM27.9727 18.3164C28.1484 17.8711 28.2773 17.332 28.2773 16.582L28.2773 3.64453C28.2773 2.83594 28.125 2.23828 27.9961 1.99219L19.3008 9.65625Z" fill="black" fill-opacity="0.85"/>
 </g>
</svg>
