<?xml version="1.0" encoding="UTF-8"?>
<!--Generator: Apple Native CoreSVG 326-->
<!DOCTYPE svg
PUBLIC "-//W3C//DTD SVG 1.1//EN"
       "http://www.w3.org/Graphics/SVG/1.1/DTD/svg11.dtd">
<svg version="1.1" xmlns="http://www.w3.org/2000/svg" xmlns:xlink="http://www.w3.org/1999/xlink" viewBox="0 0 24.9141 22.3945">
 <g>
  <rect height="22.3945" opacity="0" width="24.9141" x="0" y="0"/>
  <path d="M15.0117 1.60547L24.1055 17.4492C24.3984 17.9648 24.5625 18.5391 24.5625 19.0898C24.5625 20.8828 23.3555 22.2656 21.3633 22.2656L3.19922 22.2656C1.20703 22.2656 0 20.8828 0 19.0898C0 18.5391 0.140625 17.9766 0.457031 17.4492L9.55078 1.60547C10.1484 0.539062 11.2031 0 12.2812 0C13.3594 0 14.4023 0.539062 15.0117 1.60547ZM10.9805 17.1094C10.9805 17.8008 11.5898 18.3633 12.293 18.3633C12.9844 18.3633 13.5938 17.8125 13.5938 17.1094C13.5938 16.3945 12.9961 15.8438 12.293 15.8438C11.5781 15.8438 10.9805 16.4062 10.9805 17.1094ZM11.1797 7.08984L11.332 13.4648C11.3438 14.0859 11.6836 14.4375 12.293 14.4375C12.8672 14.4375 13.207 14.0977 13.2188 13.4648L13.3945 7.10156C13.4062 6.48047 12.9141 6.02344 12.2812 6.02344C11.625 6.02344 11.168 6.46875 11.1797 7.08984Z" fill="black" fill-opacity="0.85"/>
 </g>
</svg>
