<?xml version="1.0" encoding="UTF-8"?>
<!--Generator: Apple Native CoreSVG 326-->
<!DOCTYPE svg
PUBLIC "-//W3C//DTD SVG 1.1//EN"
       "http://www.w3.org/Graphics/SVG/1.1/DTD/svg11.dtd">
<svg version="1.1" xmlns="http://www.w3.org/2000/svg" xmlns:xlink="http://www.w3.org/1999/xlink" viewBox="0 0 28.3359 24.668">
 <g>
  <rect height="24.668" opacity="0" width="28.3359" x="0" y="0"/>
  <path d="M10.8281 22.7578L10.8281 15.8672C10.8281 15.3281 11.1914 14.9766 11.7305 14.9766L16.2656 14.9766C16.8164 14.9766 17.1562 15.3281 17.1562 15.8672L17.1562 22.7578ZM3.65625 22.0664C3.65625 23.6953 4.64062 24.6445 6.29297 24.6445L21.7031 24.6445C23.3555 24.6445 24.3281 23.6953 24.3281 22.0664L24.3281 12.7617L14.6953 4.6875C14.25 4.3125 13.7227 4.32422 13.2891 4.6875L3.65625 12.7617ZM1.00781 12.5156C1.33594 12.5156 1.60547 12.3398 1.85156 12.1406L13.582 2.28516C13.7109 2.17969 13.8633 2.12109 13.9922 2.12109C14.1328 2.12109 14.2734 2.17969 14.4023 2.28516L26.1445 12.1406C26.3789 12.3398 26.6484 12.5156 26.9766 12.5156C27.6094 12.5156 27.9844 12.0586 27.9844 11.5781C27.9844 11.3086 27.8789 11.0273 27.6094 10.8164L15.3984 0.5625C14.9531 0.1875 14.4727 0 13.9922 0C13.5117 0 13.0312 0.1875 12.5859 0.5625L0.375 10.8164C0.117188 11.0273 0 11.3086 0 11.5781C0 12.0586 0.375 12.5156 1.00781 12.5156ZM21.6211 6.29297L24.5625 8.77734L24.5625 3.49219C24.5625 2.97656 24.2344 2.64844 23.7188 2.64844L22.4648 2.64844C21.9609 2.64844 21.6211 2.97656 21.6211 3.49219Z" fill="black" fill-opacity="0.85"/>
 </g>
</svg>
