<?xml version="1.0" encoding="UTF-8"?>
<!--Generator: Apple Native CoreSVG 326-->
<!DOCTYPE svg
PUBLIC "-//W3C//DTD SVG 1.1//EN"
       "http://www.w3.org/Graphics/SVG/1.1/DTD/svg11.dtd">
<svg version="1.1" xmlns="http://www.w3.org/2000/svg" xmlns:xlink="http://www.w3.org/1999/xlink" viewBox="0 0 24.2578 23.918">
 <g>
  <rect height="23.918" opacity="0" width="24.2578" x="0" y="0"/>
  <path d="M23.9062 11.9531C23.9062 18.5391 18.5508 23.9062 11.9531 23.9062C5.36719 23.9062 0 18.5391 0 11.9531C0 5.35547 5.36719 0 11.9531 0C18.5508 0 23.9062 5.35547 23.9062 11.9531ZM10.043 9.78516C9.55078 9.78516 9.16406 10.1719 9.16406 10.6406C9.16406 11.1445 9.55078 11.5078 10.043 11.5078L11.332 11.5078L11.332 17.0156L9.84375 17.0156C9.33984 17.0156 8.95312 17.4023 8.95312 17.8711C8.95312 18.375 9.33984 18.7383 9.84375 18.7383L14.7539 18.7383C15.2578 18.7383 15.6445 18.375 15.6445 17.8711C15.6445 17.4023 15.2578 17.0156 14.7539 17.0156L13.2656 17.0156L13.2656 10.8867C13.2656 10.2305 12.9375 9.78516 12.3164 9.78516ZM10.2656 6.19922C10.2656 7.08984 10.9688 7.79297 11.8477 7.79297C12.7266 7.79297 13.418 7.08984 13.418 6.19922C13.418 5.30859 12.7266 4.60547 11.8477 4.60547C10.9688 4.60547 10.2656 5.30859 10.2656 6.19922Z" fill="black" fill-opacity="0.85"/>
 </g>
</svg>
