<?xml version="1.0" encoding="UTF-8"?>
<!--Generator: Apple Native CoreSVG 326-->
<!DOCTYPE svg
PUBLIC "-//W3C//DTD SVG 1.1//EN"
       "http://www.w3.org/Graphics/SVG/1.1/DTD/svg11.dtd">
<svg version="1.1" xmlns="http://www.w3.org/2000/svg" xmlns:xlink="http://www.w3.org/1999/xlink" viewBox="0 0 24.0586 12.0352">
 <g>
  <rect height="12.0352" opacity="0" width="24.0586" x="0" y="0"/>
  <path d="M0.878906 12.0352L22.8164 12.0352C23.3086 12.0352 23.707 11.6367 23.707 11.1328C23.707 10.6406 23.3086 10.2539 22.8164 10.2539L0.878906 10.2539C0.386719 10.2539 0 10.6406 0 11.1328C0 11.6367 0.386719 12.0352 0.878906 12.0352Z" fill="black" fill-opacity="0.85"/>
  <path d="M0.878906 6.91406L22.8164 6.91406C23.3086 6.91406 23.707 6.52734 23.707 6.03516C23.707 5.53125 23.3086 5.13281 22.8164 5.13281L0.878906 5.13281C0.386719 5.13281 0 5.53125 0 6.03516C0 6.52734 0.386719 6.91406 0.878906 6.91406Z" fill="black" fill-opacity="0.85"/>
  <path d="M0.878906 1.80469L22.8164 1.80469C23.3086 1.80469 23.707 1.41797 23.707 0.925781C23.707 0.433594 23.3086 0.0351562 22.8164 0.0351562L0.878906 0.0351562C0.386719 0.0351562 0 0.433594 0 0.925781C0 1.41797 0.386719 1.80469 0.878906 1.80469Z" fill="black" fill-opacity="0.85"/>
 </g>
</svg>
