<?xml version="1.0" encoding="UTF-8"?>
<!--Generator: Apple Native CoreSVG 326-->
<!DOCTYPE svg
PUBLIC "-//W3C//DTD SVG 1.1//EN"
       "http://www.w3.org/Graphics/SVG/1.1/DTD/svg11.dtd">
<svg version="1.1" xmlns="http://www.w3.org/2000/svg" xmlns:xlink="http://www.w3.org/1999/xlink" viewBox="0 0 23.9648 17.1211">
 <g>
  <rect height="17.1211" opacity="0" width="23.9648" x="0" y="0"/>
  <path d="M6.65625 16.5938L22.6523 16.5938C23.1797 16.5938 23.6133 16.1836 23.6133 15.6445C23.6133 15.1172 23.1797 14.707 22.6523 14.707L6.65625 14.707C6.11719 14.707 5.70703 15.1172 5.70703 15.6445C5.70703 16.1836 6.11719 16.5938 6.65625 16.5938Z" fill="black" fill-opacity="0.85"/>
  <path d="M1.47656 17.1211C2.29688 17.1211 2.95312 16.4648 2.95312 15.6445C2.95312 14.8359 2.29688 14.1797 1.47656 14.1797C0.65625 14.1797 0 14.8359 0 15.6445C0 16.4648 0.65625 17.1211 1.47656 17.1211Z" fill="black" fill-opacity="0.85"/>
  <path d="M6.65625 9.50391L22.6523 9.50391C23.1797 9.50391 23.6133 9.09375 23.6133 8.56641C23.6133 8.03906 23.1797 7.61719 22.6523 7.61719L6.65625 7.61719C6.11719 7.61719 5.70703 8.03906 5.70703 8.56641C5.70703 9.09375 6.11719 9.50391 6.65625 9.50391Z" fill="black" fill-opacity="0.85"/>
  <path d="M1.47656 10.043C2.29688 10.043 2.95312 9.38672 2.95312 8.56641C2.95312 7.74609 2.29688 7.08984 1.47656 7.08984C0.65625 7.08984 0 7.74609 0 8.56641C0 9.38672 0.65625 10.043 1.47656 10.043Z" fill="black" fill-opacity="0.85"/>
  <path d="M6.65625 2.42578L22.6523 2.42578C23.1797 2.42578 23.6133 2.01562 23.6133 1.47656C23.6133 0.949219 23.1797 0.539062 22.6523 0.539062L6.65625 0.539062C6.11719 0.539062 5.70703 0.949219 5.70703 1.47656C5.70703 2.01562 6.11719 2.42578 6.65625 2.42578Z" fill="black" fill-opacity="0.85"/>
  <path d="M1.47656 2.95312C2.29688 2.95312 2.95312 2.29688 2.95312 1.47656C2.95312 0.667969 2.29688 0 1.47656 0C0.65625 0 0 0.667969 0 1.47656C0 2.29688 0.65625 2.95312 1.47656 2.95312Z" fill="black" fill-opacity="0.85"/>
 </g>
</svg>
