<?xml version="1.0" encoding="UTF-8"?>
<!--Generator: Apple Native CoreSVG 326-->
<!DOCTYPE svg
PUBLIC "-//W3C//DTD SVG 1.1//EN"
       "http://www.w3.org/Graphics/SVG/1.1/DTD/svg11.dtd">
<svg version="1.1" xmlns="http://www.w3.org/2000/svg" xmlns:xlink="http://www.w3.org/1999/xlink" viewBox="0 0 16.3477 23.6133">
 <g>
  <rect height="23.6133" opacity="0" width="16.3477" x="0" y="0"/>
  <path d="M2.63672 22.9922L13.3594 22.9922C15.082 22.9922 15.9961 22.0547 15.9961 20.2031L15.9961 12.1289C15.9961 10.2773 15.082 9.35156 13.3594 9.35156L2.63672 9.35156C0.914062 9.35156 0 10.2773 0 12.1289L0 20.2031C0 22.0547 0.914062 22.9922 2.63672 22.9922ZM2.05078 10.2539L3.91406 10.2539L3.91406 6.29297C3.91406 3.33984 5.80078 1.76953 7.99219 1.76953C10.1836 1.76953 12.0938 3.33984 12.0938 6.29297L12.0938 10.2539L13.9453 10.2539L13.9453 6.55078C13.9453 2.14453 11.0625 0 7.99219 0C4.93359 0 2.05078 2.14453 2.05078 6.55078Z" fill="black" fill-opacity="0.85"/>
 </g>
</svg>
