<?xml version="1.0" encoding="UTF-8"?>
<!--Generator: Apple Native CoreSVG 326-->
<!DOCTYPE svg
PUBLIC "-//W3C//DTD SVG 1.1//EN"
       "http://www.w3.org/Graphics/SVG/1.1/DTD/svg11.dtd">
<svg version="1.1" xmlns="http://www.w3.org/2000/svg" xmlns:xlink="http://www.w3.org/1999/xlink" viewBox="0 0 24.2578 23.918">
 <g>
  <rect height="23.918" opacity="0" width="24.2578" x="0" y="0"/>
  <path d="M11.9531 23.9062C18.5508 23.9062 23.9062 18.5508 23.9062 11.9531C23.9062 5.35547 18.5508 0 11.9531 0C5.35547 0 0 5.35547 0 11.9531C0 18.5508 5.35547 23.9062 11.9531 23.9062ZM11.9531 21.9141C6.44531 21.9141 1.99219 17.4609 1.99219 11.9531C1.99219 6.44531 6.44531 1.99219 11.9531 1.99219C17.4609 1.99219 21.9141 6.44531 21.9141 11.9531C21.9141 17.4609 17.4609 21.9141 11.9531 21.9141Z" fill="black" fill-opacity="0.85"/>
  <path d="M9.26953 7.57031C9.26953 8.75391 10.0547 9.76172 11.1328 10.1016L11.1328 15.9961C11.1328 17.707 11.4141 19.2305 11.9414 19.2305C12.4805 19.2305 12.7383 17.7305 12.7383 15.9961L12.7383 10.1016C13.8281 9.77344 14.6133 8.76562 14.6133 7.57031C14.6133 6.09375 13.418 4.89844 11.9414 4.89844C10.4766 4.89844 9.26953 6.09375 9.26953 7.57031ZM10.4062 6.87891C10.3945 6.42188 10.8047 6.02344 11.25 6.02344C11.7188 6.02344 12.1055 6.42188 12.1055 6.87891C12.1055 7.33594 11.7188 7.73438 11.25 7.73438C10.8047 7.73438 10.4062 7.33594 10.4062 6.87891Z" fill="black" fill-opacity="0.85"/>
 </g>
</svg>
