<?xml version="1.0" encoding="UTF-8"?>
<!--Generator: Apple Native CoreSVG 326-->
<!DOCTYPE svg
PUBLIC "-//W3C//DTD SVG 1.1//EN"
       "http://www.w3.org/Graphics/SVG/1.1/DTD/svg11.dtd">
<svg version="1.1" xmlns="http://www.w3.org/2000/svg" xmlns:xlink="http://www.w3.org/1999/xlink" viewBox="0 0 24.2578 23.918">
 <g>
  <rect height="23.918" opacity="0" width="24.2578" x="0" y="0"/>
  <path d="M23.9062 11.9648C23.9062 18.5625 18.5508 23.918 11.9531 23.918C5.36719 23.918 0 18.5625 0 11.9648C0 5.37891 5.36719 0.0117188 11.9531 0.0117188C18.5508 0.0117188 23.9062 5.37891 23.9062 11.9648ZM9.1875 7.44141C9.1875 8.68359 10.0078 9.71484 11.1094 10.0547L11.1094 16.1133C11.1094 17.8828 11.4023 19.4766 11.9531 19.4766C12.5156 19.4766 12.7852 17.918 12.7852 16.1133L12.7852 10.0547C13.8984 9.72656 14.7188 8.69531 14.7188 7.44141C14.7188 5.91797 13.4766 4.6875 11.9531 4.6875C10.4414 4.6875 9.1875 5.91797 9.1875 7.44141ZM12.1172 6.73828C12.1172 7.20703 11.7188 7.61719 11.2383 7.61719C10.7812 7.61719 10.3711 7.20703 10.3711 6.73828C10.3594 6.25781 10.7812 5.84766 11.2383 5.84766C11.7188 5.84766 12.1172 6.25781 12.1172 6.73828Z" fill="black" fill-opacity="0.85"/>
 </g>
</svg>
