<?xml version="1.0" encoding="UTF-8"?>
<!--Generator: Apple Native CoreSVG 326-->
<!DOCTYPE svg
PUBLIC "-//W3C//DTD SVG 1.1//EN"
       "http://www.w3.org/Graphics/SVG/1.1/DTD/svg11.dtd">
<svg version="1.1" xmlns="http://www.w3.org/2000/svg" xmlns:xlink="http://www.w3.org/1999/xlink" viewBox="0 0 20.8242 21.7148">
 <g>
  <rect height="21.7148" opacity="0" width="20.8242" x="0" y="0"/>
  <path d="M2.87109 21.7031L17.6016 21.7031C19.5469 21.7031 20.4727 21.1172 20.4727 19.8281C20.4727 16.7578 16.5938 12.3164 10.2422 12.3164C3.87891 12.3164 0 16.7578 0 19.8281C0 21.1172 0.925781 21.7031 2.87109 21.7031ZM2.32031 19.9336C2.01562 19.9336 1.88672 19.8516 1.88672 19.6055C1.88672 17.6719 4.86328 14.0859 10.2422 14.0859C15.6094 14.0859 18.5859 17.6719 18.5859 19.6055C18.5859 19.8516 18.4688 19.9336 18.1641 19.9336ZM10.2422 10.8516C13.0312 10.8516 15.3047 8.37891 15.3047 5.35547C15.3047 2.35547 13.043 0 10.2422 0C7.46484 0 5.17969 2.40234 5.17969 5.37891C5.17969 8.39062 7.45312 10.8516 10.2422 10.8516ZM10.2422 9.08203C8.53125 9.08203 7.06641 7.45312 7.06641 5.37891C7.06641 3.33984 8.50781 1.76953 10.2422 1.76953C11.9883 1.76953 13.418 3.30469 13.418 5.35547C13.418 7.42969 11.9648 9.08203 10.2422 9.08203Z" fill="black" fill-opacity="0.85"/>
 </g>
</svg>
