<?xml version="1.0" encoding="UTF-8"?>
<!--Generator: Apple Native CoreSVG 326-->
<!DOCTYPE svg
PUBLIC "-//W3C//DTD SVG 1.1//EN"
       "http://www.w3.org/Graphics/SVG/1.1/DTD/svg11.dtd">
<svg version="1.1" xmlns="http://www.w3.org/2000/svg" xmlns:xlink="http://www.w3.org/1999/xlink" viewBox="0 0 24.2578 23.918">
 <g>
  <rect height="23.918" opacity="0" width="24.2578" x="0" y="0"/>
  <path d="M23.9062 11.9531C23.9062 18.5391 18.5508 23.9062 11.9531 23.9062C5.36719 23.9062 0 18.5391 0 11.9531C0 5.35547 5.36719 0 11.9531 0C18.5508 0 23.9062 5.35547 23.9062 11.9531ZM4.74609 19.1133C6.53906 21.0234 9.25781 22.125 11.9414 22.125C14.6367 22.125 17.3438 21.0234 19.1484 19.1133C17.8711 17.0977 15.0938 15.9492 11.9414 15.9492C8.76562 15.9492 6.01172 17.1211 4.74609 19.1133ZM7.92188 9.53906C7.92188 12.0586 9.69141 13.9336 11.9414 13.957C14.2031 13.9805 15.9609 12.0586 15.9609 9.53906C15.9609 7.17188 14.1914 5.20312 11.9414 5.20312C9.70312 5.20312 7.91016 7.17188 7.92188 9.53906Z" fill="black" fill-opacity="0.85"/>
 </g>
</svg>
