<?xml version="1.0" encoding="UTF-8"?>
<!--Generator: Apple Native CoreSVG 326-->
<!DOCTYPE svg
PUBLIC "-//W3C//DTD SVG 1.1//EN"
       "http://www.w3.org/Graphics/SVG/1.1/DTD/svg11.dtd">
<svg version="1.1" xmlns="http://www.w3.org/2000/svg" xmlns:xlink="http://www.w3.org/1999/xlink" viewBox="0 0 21.9258 21.5742">
 <g>
  <rect height="21.5742" opacity="0" width="21.9258" x="0" y="0"/>
  <path d="M21.5742 3.63281L21.5742 17.9531C21.5742 20.3672 20.3555 21.5742 17.8945 21.5742L3.67969 21.5742C1.23047 21.5742 0 20.3672 0 17.9531L0 3.63281C0 1.21875 1.23047 0 3.67969 0L17.8945 0C20.3555 0 21.5742 1.21875 21.5742 3.63281ZM2.89453 19.8281L18.7031 19.8281C17.8008 16.8516 14.6367 14.707 10.8047 14.707C6.96094 14.707 3.79688 16.8516 2.89453 19.8281ZM6.78516 8.35547C6.79688 10.8633 8.55469 12.7266 10.793 12.75C13.0312 12.7734 14.8008 10.8633 14.8008 8.35547C14.8008 6 13.0312 4.05469 10.793 4.05469C8.55469 4.05469 6.77344 6 6.78516 8.35547Z" fill="black" fill-opacity="0.85"/>
 </g>
</svg>
