<?xml version="1.0" encoding="UTF-8"?>
<!--Generator: Apple Native CoreSVG 326-->
<!DOCTYPE svg
PUBLIC "-//W3C//DTD SVG 1.1//EN"
       "http://www.w3.org/Graphics/SVG/1.1/DTD/svg11.dtd">
<svg version="1.1" xmlns="http://www.w3.org/2000/svg" xmlns:xlink="http://www.w3.org/1999/xlink" viewBox="0 0 24.2578 23.918">
 <g>
  <rect height="23.918" opacity="0" width="24.2578" x="0" y="0"/>
  <path d="M11.9531 23.9062C18.5508 23.9062 23.9062 18.5508 23.9062 11.9531C23.9062 5.35547 18.5508 0 11.9531 0C5.35547 0 0 5.35547 0 11.9531C0 18.5508 5.35547 23.9062 11.9531 23.9062ZM11.9531 21.9141C6.44531 21.9141 1.99219 17.4609 1.99219 11.9531C1.99219 6.44531 6.44531 1.99219 11.9531 1.99219C17.4609 1.99219 21.9141 6.44531 21.9141 11.9531C21.9141 17.4609 17.4609 21.9141 11.9531 21.9141ZM19.9688 19.6758L19.9336 19.5469C19.3594 17.8242 16.2656 15.9375 11.9531 15.9375C7.65234 15.9375 4.55859 17.8242 3.97266 19.5352L3.9375 19.6758C6.04688 21.7617 9.66797 22.9805 11.9531 22.9805C14.25 22.9805 17.8359 21.7734 19.9688 19.6758ZM11.9531 13.9453C14.2148 13.9688 15.9727 12.0469 15.9727 9.52734C15.9727 7.16016 14.2031 5.20312 11.9531 5.20312C9.70312 5.20312 7.92188 7.16016 7.93359 9.52734C7.94531 12.0469 9.70312 13.9219 11.9531 13.9453Z" fill="black" fill-opacity="0.85"/>
 </g>
</svg>
