<?xml version="1.0" encoding="UTF-8"?>
<!--Generator: Apple Native CoreSVG 326-->
<!DOCTYPE svg
PUBLIC "-//W3C//DTD SVG 1.1//EN"
       "http://www.w3.org/Graphics/SVG/1.1/DTD/svg11.dtd">
<svg version="1.1" xmlns="http://www.w3.org/2000/svg" xmlns:xlink="http://www.w3.org/1999/xlink" viewBox="0 0 22.1953 21.8789">
 <g>
  <rect height="21.8789" opacity="0" width="22.1953" x="0" y="0"/>
  <path d="M6 15.7852C9.44531 19.2422 13.5703 21.8672 16.8867 21.8672C18.4453 21.8672 19.8047 21.2461 20.6953 20.25C21.5508 19.2891 21.8438 18.5742 21.8438 17.9414C21.8438 17.4492 21.5391 16.9922 20.7656 16.4531L17.9062 14.4023C17.1914 13.8984 16.875 13.8047 16.4531 13.8047C16.0898 13.8047 15.7852 13.875 15.1758 14.2031L13.3008 15.2344C13.0781 15.3633 12.9844 15.3867 12.8203 15.3867C12.5977 15.3867 12.4453 15.3281 12.2227 15.2344C11.332 14.8242 10.0781 13.8398 8.96484 12.7266C7.85156 11.6133 6.98438 10.4766 6.53906 9.59766C6.48047 9.48047 6.41016 9.29297 6.41016 9.10547C6.41016 8.95312 6.49219 8.82422 6.58594 8.66016L7.6875 6.77344C7.99219 6.25781 8.07422 5.97656 8.07422 5.57812C8.07422 5.12109 7.92188 4.62891 7.48828 4.00781L5.51953 1.26562C4.95703 0.480469 4.53516 0 3.90234 0C3.11719 0 2.16797 0.597656 1.48828 1.25391C0.515625 2.19141 0 3.50391 0 4.98047C0 8.32031 2.56641 12.3633 6 15.7852Z" fill="black" fill-opacity="0.85"/>
 </g>
</svg>
