<?xml version="1.0" encoding="UTF-8"?>
<!--Generator: Apple Native CoreSVG 326-->
<!DOCTYPE svg
PUBLIC "-//W3C//DTD SVG 1.1//EN"
       "http://www.w3.org/Graphics/SVG/1.1/DTD/svg11.dtd">
<svg version="1.1" xmlns="http://www.w3.org/2000/svg" xmlns:xlink="http://www.w3.org/1999/xlink" viewBox="0 0 24.2578 23.918">
 <g>
  <rect height="23.918" opacity="0" width="24.2578" x="0" y="0"/>
  <path d="M23.9062 11.9531C23.9062 18.5391 18.5508 23.9062 11.9531 23.9062C5.36719 23.9062 0 18.5391 0 11.9531C0 5.35547 5.36719 0 11.9531 0C18.5508 0 23.9062 5.35547 23.9062 11.9531ZM10.9336 7.26562L10.9336 10.9336L7.26562 10.9336C6.65625 10.9336 6.23438 11.3555 6.23438 11.9648C6.23438 12.5625 6.65625 12.9609 7.26562 12.9609L10.9336 12.9609L10.9336 16.6406C10.9336 17.2383 11.3438 17.6719 11.9414 17.6719C12.5508 17.6719 12.9727 17.25 12.9727 16.6406L12.9727 12.9609L16.6523 12.9609C17.25 12.9609 17.6836 12.5625 17.6836 11.9648C17.6836 11.3555 17.25 10.9336 16.6523 10.9336L12.9727 10.9336L12.9727 7.26562C12.9727 6.65625 12.5508 6.22266 11.9414 6.22266C11.3438 6.22266 10.9336 6.65625 10.9336 7.26562Z" fill="black" fill-opacity="0.85"/>
 </g>
</svg>
