<?xml version="1.0" encoding="UTF-8"?>
<!--Generator: Apple Native CoreSVG 326-->
<!DOCTYPE svg
PUBLIC "-//W3C//DTD SVG 1.1//EN"
       "http://www.w3.org/Graphics/SVG/1.1/DTD/svg11.dtd">
<svg version="1.1" xmlns="http://www.w3.org/2000/svg" xmlns:xlink="http://www.w3.org/1999/xlink" viewBox="0 0 21.1523 27.5273">
 <g>
  <rect height="27.5273" opacity="0" width="21.1523" x="0" y="0"/>
  <path d="M0 22.6875C0 25.1133 1.23047 26.3203 3.67969 26.3203L17.1211 26.3203C19.5703 26.3203 20.8008 25.1016 20.8008 22.6875L20.8008 11.1328C20.8008 8.71875 19.5703 7.5 17.1211 7.5L3.67969 7.5C1.23047 7.5 0 8.70703 0 11.1328ZM10.3945 17.1445C9.89062 17.1445 9.46875 16.7344 9.46875 16.2422L9.46875 4.3125L9.53906 2.56641L8.88281 3.25781L7.06641 5.19141C6.90234 5.37891 6.64453 5.47266 6.42188 5.47266C5.92969 5.47266 5.57812 5.12109 5.57812 4.65234C5.57812 4.39453 5.68359 4.20703 5.85938 4.03125L9.71484 0.304688C9.96094 0.0703125 10.1602 0 10.3945 0C10.6406 0 10.8398 0.0703125 11.0742 0.304688L14.9414 4.03125C15.1172 4.20703 15.2109 4.39453 15.2109 4.65234C15.2109 5.12109 14.8477 5.47266 14.3555 5.47266C14.1328 5.47266 13.8867 5.37891 13.7227 5.19141L11.918 3.25781L11.2617 2.56641L11.332 4.3125L11.332 16.2422C11.332 16.7344 10.8984 17.1445 10.3945 17.1445Z" fill="black" fill-opacity="0.85"/>
 </g>
</svg>
