<?xml version="1.0" encoding="UTF-8"?>
<!--Generator: Apple Native CoreSVG 326-->
<!DOCTYPE svg
PUBLIC "-//W3C//DTD SVG 1.1//EN"
       "http://www.w3.org/Graphics/SVG/1.1/DTD/svg11.dtd">
<svg version="1.1" xmlns="http://www.w3.org/2000/svg" xmlns:xlink="http://www.w3.org/1999/xlink" viewBox="0 0 21.1523 31.207">
 <g>
  <rect height="31.207" opacity="0" width="21.1523" x="0" y="0"/>
  <path d="M20.8008 12.9727L20.8008 24.5273C20.8008 26.9414 19.5703 28.1602 17.1211 28.1602L3.67969 28.1602C1.23047 28.1602 0 26.9531 0 24.5273L0 12.9727C0 10.5469 1.23047 9.33984 3.67969 9.33984L7.26563 9.33984L7.26563 11.2266L3.70312 11.2266C2.53125 11.2266 1.88672 11.8477 1.88672 13.0664L1.88672 24.4336C1.88672 25.6523 2.53125 26.2734 3.70312 26.2734L17.0859 26.2734C18.2461 26.2734 18.9141 25.6523 18.9141 24.4336L18.9141 13.0664C18.9141 11.8477 18.2461 11.2266 17.0859 11.2266L13.5234 11.2266L13.5234 9.33984L17.1211 9.33984C19.5703 9.33984 20.8008 10.5586 20.8008 12.9727Z" fill="black" fill-opacity="0.85"/>
  <path d="M10.3945 18.9844C10.8984 18.9844 11.332 18.5742 11.332 18.082L11.332 6.16406L11.2617 4.41797L11.918 5.10938L13.7227 7.04297C13.8867 7.23047 14.1328 7.32422 14.3555 7.32422C14.8477 7.32422 15.2109 6.97266 15.2109 6.50391C15.2109 6.24609 15.1172 6.05859 14.9414 5.88281L11.0742 2.15625C10.8398 1.92188 10.6406 1.85156 10.3945 1.85156C10.1602 1.85156 9.96094 1.92188 9.71484 2.15625L5.85938 5.88281C5.68359 6.05859 5.57812 6.24609 5.57812 6.50391C5.57812 6.97266 5.92969 7.32422 6.42188 7.32422C6.64453 7.32422 6.90234 7.23047 7.06641 7.04297L8.88281 5.10938L9.53906 4.41797L9.46875 6.16406L9.46875 18.082C9.46875 18.5742 9.89062 18.9844 10.3945 18.9844Z" fill="black" fill-opacity="0.85"/>
 </g>
</svg>
