<?xml version="1.0" encoding="UTF-8"?>
<!--Generator: Apple Native CoreSVG 326-->
<!DOCTYPE svg
PUBLIC "-//W3C//DTD SVG 1.1//EN"
       "http://www.w3.org/Graphics/SVG/1.1/DTD/svg11.dtd">
<svg version="1.1" xmlns="http://www.w3.org/2000/svg" xmlns:xlink="http://www.w3.org/1999/xlink" viewBox="0 0 27.6204 27.9197">
 <g>
  <rect height="27.9197" opacity="0" width="27.6204" x="0" y="0"/>
  <path d="M1.44105 26.4931C3.37465 28.4267 6.18715 28.4501 8.1559 26.2235C10.2653 23.8095 12.7262 19.2157 16.0895 15.8524C18.7028 13.2274 21.6676 15.7821 25.2653 12.3368C26.7067 10.9657 27.5036 8.99697 27.2106 7.56728L22.7106 8.79775C21.9489 8.99697 21.4215 8.5165 21.1871 7.70791L20.8473 6.52432C20.6129 5.71572 20.8942 5.03603 21.6442 4.83682L26.1325 3.61807C26.0036 3.20791 25.6168 2.64541 25.1364 2.15322C22.4293-0.624122 17.8942-0.577247 15.2809 1.89541C11.3668 5.61025 14.3317 9.53603 11.7653 12.1024C8.69496 15.161 4.10121 17.6688 1.69887 19.7782C-0.539416 21.7353-0.504259 24.5478 1.44105 26.4931ZM2.55433 25.3681C1.28871 24.079 1.30043 22.1688 2.77699 20.8681C5.20277 18.747 10.1129 15.9931 12.8903 13.2157C15.9137 10.1923 12.7145 6.41885 16.4176 3.00869C18.445 1.14541 22.0309 1.14541 24.1754 3.2665L24.5621 2.56338L21.3278 3.40713C19.6168 3.86416 18.8668 5.17666 19.3825 6.95791L19.7106 8.09463C20.2731 10.0751 21.4332 10.6259 23.0036 10.204L26.3434 9.30166L25.6403 8.92666C25.3942 9.77041 24.9489 10.6259 24.2106 11.3642C21.2926 14.2118 17.9528 11.7626 14.9645 14.7274C11.9176 17.7743 9.18715 22.7079 7.06605 25.1454C5.74183 26.6688 3.81996 26.6688 2.55433 25.3681ZM16.57 11.5517L19.1129 10.872C19.3239 10.8134 19.4528 10.579 19.3942 10.3563C19.3473 10.1454 19.1246 10.0048 18.8903 10.0751L16.359 10.7548C16.1364 10.8134 16.0192 11.036 16.0661 11.247C16.1012 11.5048 16.3473 11.6103 16.57 11.5517ZM16.2653 10.2626L18.7731 9.59463C18.9957 9.53603 19.1364 9.31338 19.0661 9.06728C19.0075 8.84463 18.7731 8.72744 18.5621 8.77432L16.0309 9.46572C15.8082 9.5126 15.6793 9.74697 15.7379 9.95791C15.8082 10.204 16.0192 10.3329 16.2653 10.2626ZM15.9489 8.97353L18.4684 8.30557C18.6911 8.24697 18.82 8.02432 18.7496 7.77822C18.7028 7.55557 18.4684 7.42666 18.2575 7.48525L15.7145 8.16494C15.4918 8.22353 15.3746 8.45791 15.4332 8.66885C15.4918 8.91494 15.7028 9.04385 15.9489 8.97353ZM21.1754 13.4384L22.2301 13.204L20.7653 7.88369L19.7106 8.09463ZM4.75746 24.6298C5.55433 24.6298 6.19887 23.9853 6.19887 23.1884C6.19887 22.3915 5.55433 21.7353 4.75746 21.7353C3.96058 21.7353 3.30433 22.3915 3.30433 23.1884C3.30433 23.9853 3.96058 24.6298 4.75746 24.6298Z" fill="black" fill-opacity="0.85"/>
 </g>
</svg>
