<?xml version="1.0" encoding="UTF-8"?>
<!--Generator: Apple Native CoreSVG 326-->
<!DOCTYPE svg
PUBLIC "-//W3C//DTD SVG 1.1//EN"
       "http://www.w3.org/Graphics/SVG/1.1/DTD/svg11.dtd">
<svg version="1.1" xmlns="http://www.w3.org/2000/svg" xmlns:xlink="http://www.w3.org/1999/xlink" viewBox="0 0 27.6209 27.9801">
 <g>
  <rect height="27.9801" opacity="0" width="27.6209" x="0" y="0"/>
  <path d="M1.4413 26.535C3.37489 28.4686 6.24599 28.5389 8.14442 26.2772C9.53896 24.6014 13.0663 18.9178 16.0897 15.8943C18.1054 13.8787 20.3319 14.9451 22.5702 14.0311L20.578 6.76543C20.3319 5.86309 20.6952 5.11309 21.7382 4.83184L26.1327 3.65997C25.9921 3.24981 25.6054 2.68731 25.1249 2.19512C22.4179-0.582222 17.9413-0.617378 15.2694 1.91387C11.3671 5.62872 14.3319 9.5545 11.7655 12.1209C8.53114 15.3436 4.07802 17.6873 1.69911 19.8201C-0.527451 21.8006-0.515732 24.5779 1.4413 26.535ZM4.75771 24.66C3.96083 24.66 3.30458 24.0154 3.30458 23.2186C3.30458 22.4217 3.96083 21.7654 4.75771 21.7654C5.55458 21.7654 6.19911 22.4217 6.19911 23.2186C6.19911 24.0154 5.55458 24.66 4.75771 24.66ZM15.7733 9.00372C15.5155 9.07403 15.2929 8.94512 15.2108 8.66387C15.1405 8.45293 15.2811 8.19512 15.5272 8.12481L18.2694 7.38653C18.4921 7.32793 18.7499 7.46856 18.8085 7.71465C18.8905 7.98418 18.7382 8.21856 18.4921 8.28887ZM16.1249 10.3982C15.8671 10.4686 15.6444 10.3397 15.5507 10.0584C15.4804 9.84747 15.6327 9.58965 15.8788 9.53106L18.6093 8.78106C18.8319 8.73418 19.0897 8.86309 19.16 9.10918C19.2421 9.37872 19.078 9.61309 18.8319 9.6834ZM16.4647 11.7928C16.2186 11.8631 15.9608 11.7342 15.914 11.4529C15.8554 11.2186 15.9843 10.9959 16.2421 10.9256L18.9608 10.199C19.2186 10.117 19.4647 10.2693 19.5116 10.5037C19.5702 10.7381 19.4296 10.9959 19.2069 11.0545ZM23.8593 13.4686C24.3163 13.199 24.785 12.8475 25.2655 12.3904C26.7421 11.0545 27.5038 9.03887 27.1991 7.60918L23.6483 8.58184C23.2499 8.68731 22.91 8.71075 22.5468 8.65215Z" fill="black" fill-opacity="0.85"/>
 </g>
</svg>
